<?xml version="1.0" standalone="no"?>
<!DOCTYPE svg PUBLIC "-//W3C//DTD SVG 20010904//EN"
 "http://www.w3.org/TR/2001/REC-SVG-20010904/DTD/svg10.dtd">
<svg version="1.0" xmlns="http://www.w3.org/2000/svg"
 width="213.000000pt" height="213.000000pt" viewBox="0 0 213.000000 213.000000"
 preserveAspectRatio="xMidYMid meet">
<metadata>
Created by potrace 1.14, written by Peter Selinger 2001-2017
</metadata>
<g transform="translate(0.000000,213.000000) scale(0.100000,-0.100000)"
fill="#000000" stroke="none">
<path d="M850 2034 c-394 -65 -704 -384 -765 -789 -7 -49 -7 -200 0 -238 4
-22 0 -33 -25 -53 -36 -31 -51 -57 -57 -99 -6 -42 12 -83 41 -96 l24 -11 -24
-36 c-28 -41 -31 -80 -7 -89 9 -4 36 0 59 9 l43 15 10 -29 c9 -26 8 -30 -14
-38 -40 -15 -65 -47 -65 -83 0 -45 16 -64 75 -86 43 -16 50 -23 52 -47 7 -102
28 -128 99 -122 44 3 51 1 88 -36 146 -143 480 -162 829 -45 91 30 111 34 104
21 -8 -11 35 -59 66 -75 34 -17 90 -14 123 8 57 37 77 113 41 152 -11 13 -19
24 -16 26 2 2 38 23 79 46 159 90 323 227 388 325 65 96 91 197 73 291 -8 41
-6 52 11 75 27 37 35 103 15 133 -15 23 -14 25 9 35 13 7 24 16 24 21 0 25
-22 63 -54 94 -27 24 -37 43 -41 76 -14 111 -87 173 -193 164 -38 -3 -43 -1
-53 24 -29 76 -176 238 -280 310 -97 67 -259 131 -370 148 -81 12 -212 12
-289 -1z"/>
</g>
</svg>
